<?xml version="1.0" encoding="utf-8"?>
<!-- Generator: Adobe Illustrator 22.0.0, SVG Export Plug-In . SVG Version: 6.00 Build 0)  -->
<svg version="1.1" id="Layer_1" xmlns="http://www.w3.org/2000/svg" xmlns:xlink="http://www.w3.org/1999/xlink" x="0px" y="0px"
	 viewBox="0 0 24 30" style="enable-background:new 0 0 24 30;" xml:space="preserve">
<style type="text/css">
	.st0{fill-rule:evenodd;clip-rule:evenodd;fill:#CE2B37;}
</style>
<g>
	<g>
		<path class="st0" d="M0,0v23l12,6l12-6V0H0z M23,22.4L12,28L1,22.4V1h22V22.4z M8,11.2c-0.8,0-1.5-0.4-2-0.9l-0.8,1.1
			c0.6,0.7,1.6,1.2,3,1.2c1.7,0,3.1-0.9,3.1-2.6c0-1.2-0.8-1.9-1.8-2.2V7.8c0.9-0.4,1.5-1.1,1.5-2c0-1.5-1.2-2.4-2.9-2.4
			c-1,0-1.9,0.4-2.7,1.1l0.9,1.1c0.5-0.5,1-0.8,1.7-0.8c0.8,0,1.2,0.4,1.2,1.1c0,0.8-0.5,1.4-2.2,1.4v1.3C9,8.6,9.5,9.1,9.5,10
			C9.5,10.8,8.9,11.2,8,11.2z M15.3,11.2c-0.8,0-1.5-0.4-2-0.9l-0.8,1.1c0.7,0.7,1.6,1.2,3,1.2c1.6,0,3.1-1.1,3.1-3.1
			c0-1.9-1.2-2.8-2.7-2.8c-0.4,0-0.7,0.1-1.1,0.3L15,5.1h3.2V3.6h-4.7l-0.2,4.3l0.8,0.5C14.6,8.1,14.9,8,15.4,8
			c0.9,0,1.5,0.6,1.5,1.6C16.9,10.6,16.3,11.2,15.3,11.2z M11,18.2c0-1.8-0.9-2.8-2.2-2.8c-1.3,0-2.2,1-2.2,2.8
			c0,1.8,0.9,2.8,2.2,2.8C10.1,21.1,11,20,11,18.2z M8.9,20.1c-0.5,0-0.9-0.5-0.9-1.8c0-1.3,0.4-1.8,0.9-1.8c0.5,0,0.9,0.5,0.9,1.8
			C9.8,19.6,9.4,20.1,8.9,20.1z M14,15.4l-4.8,9.2h1l4.8-9.2H14z M15.3,19c-1.3,0-2.2,1-2.2,2.8c0,1.8,0.9,2.8,2.2,2.8
			c1.3,0,2.2-1.1,2.2-2.8C17.5,20,16.6,19,15.3,19z M15.3,23.7c-0.5,0-0.9-0.5-0.9-1.8c0-1.3,0.4-1.8,0.9-1.8c0.5,0,0.9,0.5,0.9,1.8
			C16.2,23.1,15.8,23.7,15.3,23.7z"/>
	</g>
</g>
</svg>
