<?xml version="1.0" encoding="utf-8"?>
<!-- Generator: Adobe Illustrator 22.0.0, SVG Export Plug-In . SVG Version: 6.00 Build 0)  -->
<svg version="1.1" id="Layer_1" xmlns="http://www.w3.org/2000/svg" xmlns:xlink="http://www.w3.org/1999/xlink" x="0px" y="0px"
	 viewBox="0 0 78 31" style="enable-background:new 0 0 78 31;" xml:space="preserve">
<style type="text/css">
	.st0{fill-rule:evenodd;clip-rule:evenodd;fill:#CE2B37;}
</style>
<g>
	<g>
		<path class="st0" d="M0,5.2v20.5h78V5.2H0z M77,24.7H1V6.3H77V24.7z M73.8,17.6h-3v-7.2h-4.1v7.2h-3l5.1,5.1L73.8,17.6z
			 M40.8,19.6c2.5,0,4.2-1.6,4.2-4.1s-1.7-4.1-4.2-4.1c-2.5,0-4.2,1.5-4.2,4.1C36.6,18,38.3,19.6,40.8,19.6z M40.8,12.8
			c1.4,0,2.3,1,2.3,2.7c0,1.7-0.9,2.8-2.3,2.8c-1.4,0-2.3-1.1-2.3-2.8C38.5,13.8,39.4,12.8,40.8,12.8z M49,16.3h3.3v-1.3H49v-2.1
			h3.9v-1.3h-5.7v7.9H49V16.3z M24.4,19.6l5.1-8.2h-1.1l-5.1,8.2H24.4z M8.1,18.3c-0.8,0-1.5-0.4-2.1-0.8l-0.9,1
			c0.7,0.6,1.7,1.1,3.1,1.1c1.8,0,3.3-0.8,3.3-2.3c0-1-0.8-1.7-1.9-1.9v-0.1c1-0.3,1.6-1,1.6-1.8c0-1.4-1.2-2.1-3-2.1
			c-1.1,0-2,0.4-2.8,1l0.9,1c0.6-0.4,1.1-0.7,1.8-0.7c0.8,0,1.2,0.4,1.2,1c0,0.7-0.6,1.2-2.3,1.2V16c2,0,2.6,0.5,2.6,1.3
			C9.7,17.9,9,18.3,8.1,18.3z M27.5,17.1c0,1.6,0.9,2.5,2.3,2.5s2.3-0.9,2.3-2.5c0-1.6-1-2.5-2.3-2.5S27.5,15.5,27.5,17.1z
			 M29.8,15.5c0.5,0,1,0.4,1,1.6c0,1.2-0.4,1.6-1,1.6c-0.5,0-1-0.5-1-1.6C28.8,15.9,29.2,15.5,29.8,15.5z M23,16.4
			c1.3,0,2.3-0.9,2.3-2.5c0-1.6-0.9-2.5-2.3-2.5c-1.3,0-2.3,0.9-2.3,2.5C20.7,15.5,21.6,16.4,23,16.4z M23,12.3c0.5,0,1,0.4,1,1.6
			c0,1.2-0.4,1.6-1,1.6c-0.5,0-1-0.5-1-1.6C22,12.7,22.4,12.3,23,12.3z M15.8,18.3c-0.9,0-1.5-0.4-2.1-0.8l-0.9,1
			c0.7,0.6,1.7,1.1,3.2,1.1c1.7,0,3.3-1,3.3-2.8c0-1.7-1.3-2.5-2.9-2.5c-0.4,0-0.8,0.1-1.1,0.2l0.2-1.7h3.4v-1.3h-5l-0.3,3.8
			l0.8,0.5c0.5-0.3,0.8-0.4,1.4-0.4c0.9,0,1.6,0.5,1.6,1.4C17.4,17.8,16.8,18.3,15.8,18.3z M56.7,16.3H60v-1.3h-3.3v-2.1h3.9v-1.3
			h-5.7v7.9h1.9V16.3z"/>
	</g>
</g>
</svg>
