<?xml version="1.0" encoding="utf-8"?>
<!-- Generator: Adobe Illustrator 22.1.0, SVG Export Plug-In . SVG Version: 6.00 Build 0)  -->
<svg version="1.1" id="图层_1" xmlns="http://www.w3.org/2000/svg" xmlns:xlink="http://www.w3.org/1999/xlink" x="0px" y="0px"
	 viewBox="0 0 907.1 180" style="enable-background:new 0 0 907.1 180;" xml:space="preserve">
<g>
	<g>
		<rect x="700.2" y="111.2" width="44.5" height="3.8"/>
		<path d="M724.8,127.6l3.1-2.2c-2.2-3.1-4.5-6.3-6.9-9.4l-3,2.3C720.4,121.4,722.7,124.5,724.8,127.6z"/>
		<path d="M720.3,89.3H703v16.9h38.5V89.3H724V74.1h-3.8v6.2h-18.4v3.8h18.4V89.3z M714.5,102.4h-7.7V93h7.7V102.4z M729.8,93h7.8
			v9.3h-7.8V93z M726.1,93v9.3h-7.8V93H726.1z"/>
		<rect x="727.1" y="80.3" width="16.5" height="3.8"/>
		<rect x="796.9" y="117.8" width="20.4" height="3.8"/>
		<path d="M734.5,120c3.2,4.2,6.2,8.7,8.8,13.5l3.3-1.8c-2.8-5-5.8-9.7-9.1-14L734.5,120z"/>
		<path d="M699.8,76l-3.3-1.9c-4,7.2-8.6,13.4-13,18l2.7,2.6C690.9,89.9,695.5,83.6,699.8,76z"/>
		<path d="M793.9,114.5v-5.7h22.1V77.5H768v31.3h22.1v9h-23.4v3.8h23.4v9.6h-28.4v3.8h60.6v-3.8h-28.4V114.5z M793.9,81.3h18.3v10
			h-18.3V81.3z M793.9,95.1h18.3v10h-18.3V95.1z M790.1,105h-18.3v-10h18.3V105z M790.1,91.3h-18.3v-10h18.3V91.3z"/>
		<path d="M851.5,94.4v-3.7h8.6v-3.8h-8.6V73.7h-3.8v13.1h-9.2v3.8h7.7c-1.6,9.9-6.1,22.7-9.9,30.4l3.4,1.7c2.7-5.5,5.8-13.7,8-21.6
			v35.6h3.8v-35.3l2.5,3.9l3.2-2L851.5,94.4z"/>
		<path d="M880.6,99.9c5.2-4.6,9.4-9.9,12.2-15.9l0.2-0.4v-3.4h-18.9v3.8h14.5c-2.7,5.1-6.5,9.6-11.2,13.5
			c-4.7-3.6-8.3-7.4-10.1-10.1c2.1-4,3.7-8.2,5-12.9l-3.6-1c-2,7.6-5,13.8-9.7,20.2l3,2.2c1.2-1.6,2.3-3.3,3.4-4.9
			c2.1,2.7,5.2,5.8,9.1,8.9c-5.2,3.7-11.1,6.8-17.7,8.8l1.1,3.6c7.4-2.3,14.1-5.7,19.8-10c6.2,4.4,13.6,8.2,21.4,10l0.9-3.7
			C892.8,107.1,886.1,103.7,880.6,99.9z"/>
		<path d="M863.6,135.8h29v-24.2h-29V135.8z M867.3,115.4h21.4V132h-21.4V115.4z"/>
		<path d="M696.5,91.4c-4,7.2-8.6,13.4-13,18l2.7,2.6c1.9-1.9,3.7-4.2,5.6-6.5v31.2h3.8v-36.5c1.5-2.2,2.9-4.5,4.3-7L696.5,91.4z"/>
		<path d="M697.5,132.1l3.2,2c2.5-4.1,4.8-8.9,7-14.5l-3.5-1.4C702.1,123.7,699.9,128.2,697.5,132.1z"/>
		<path d="M730,130.3c-0.2,1.3-1.3,2.2-2.6,2.2h-10.5c-1.4,0-2.6-1.2-2.6-2.6v-11.3h-3.8v11.3c0,3.5,2.9,6.4,6.4,6.4h10.5
			c3.1,0,5.9-2.3,6.3-5.5l0.8-5.2l-3.7-0.5L730,130.3z"/>
	</g>
	<g>
		<path d="M82.6,77.1C75.6,64.4,62,55.8,46.4,55.8C23.6,55.8,5,74.3,5,97.2c0,22.8,18.6,41.4,41.4,41.4c15.6,0,29.1-8.6,36.2-21.3
			v19.4h5.2v-105h-5.2V77.1z M46.4,133.4c-20,0-36.2-16.2-36.2-36.2c0-20,16.2-36.2,36.2-36.2c20,0,36.2,16.2,36.2,36.2
			C82.6,117.2,66.4,133.4,46.4,133.4z"/>
		<polygon points="202.1,130.6 173.9,57.7 167.8,57.7 139.5,130.6 111.2,57.7 105.7,57.7 136.3,136.6 142.7,136.6 170.8,64.2 
			198.9,136.6 205.4,136.6 236,57.7 230.4,57.7 		"/>
		<polygon points="448,40.3 533.4,40.3 533.4,31.6 443.3,31.6 		"/>
		<polygon points="448,88.5 533.4,88.5 533.4,79.8 443.3,79.8 		"/>
		<path d="M588.9,31.6h-36.6v8.7h36.6c24.2,0,43.8,19.7,43.8,43.8c0,24.2-19.7,43.8-43.8,43.8h-36.6v8.7h36.6
			c29,0,52.5-23.6,52.5-52.5S617.9,31.6,588.9,31.6z"/>
		<polygon points="352,31.6 343.3,31.6 343.3,136.6 424.4,136.6 424.4,128 352,128 		"/>
		<polygon points="448,136.6 533.4,136.6 533.4,128 443.3,128 		"/>
		<path d="M262.2,106.7L320,89.2l5-1.5c-0.4-1.7-0.9-3.4-1.6-5c-6.1-16.1-21.8-27.5-40-26.9c-22.8,0.7-40.9,19.8-40.2,42.7
			c0.7,22.8,19.8,40.9,42.7,40.2c19.2-0.6,34.9-14.2,39.1-32.1h-5.4c-4,15.1-17.5,26.4-33.9,26.9c-20,0.6-36.7-15.2-37.3-35.1
			s15.1-36.7,35.1-37.3c15.8-0.5,29.5,9.3,34.9,23.2l-57.8,17.5L262.2,106.7z"/>
	</g>
</g>
</svg>
