<?xml version="1.0" encoding="utf-8"?>
<!-- Generator: Adobe Illustrator 22.1.0, SVG Export Plug-In . SVG Version: 6.00 Build 0)  -->
<svg version="1.1" id="Layer_1" xmlns="http://www.w3.org/2000/svg" xmlns:xlink="http://www.w3.org/1999/xlink" x="0px" y="0px"
	 viewBox="0 0 406 74" style="enable-background:new 0 0 406 74;" xml:space="preserve">
<style type="text/css">
	.st0{enable-background:new    ;}
</style>
<g>
	<g>
		<path d="M81.6,62.4h-4.3L60.8,35.1l-16,27.3h-4.3L9.4,10.7h6.1l27.2,45.1L57.6,30L46.1,10.7h6.1l27.2,45.1l26.3-45.1h6L81.6,62.4z
			"/>
		<path d="M172,62.4l-10-15.9h-37.3l-10.2,15.9h-6.6l33.4-51.7h4.8l32.3,51.7H172z M143.8,17.2l-16,24.5h31.4L143.8,17.2z"/>
		<path d="M242.4,23c-5.2-5.4-13.5-8.2-25.1-8.2c-8.8,0-16.1,1.7-22,5c-6.8,3.9-10.2,9.5-10.2,16.8s3.3,12.8,9.8,16.7
			c5.6,3.3,12.8,5,21.3,5c11.1,0,19.6-2.7,25.3-8.2l5.3,2.3c-7.5,7.1-17.7,10.6-30.5,10.6c-9.8,0-18-1.9-24.5-5.6
			c-8.1-4.6-12.2-11.4-12.2-20.4c0-9.2,4.2-16.3,12.6-21c6.8-3.8,15.2-5.7,25.2-5.7c13.3,0,23.4,3.5,30.3,10.4L242.4,23z"/>
	</g>
	<g class="st0">
		<path d="M327.8,60.1c-4.5,2.2-11,3.3-19.3,3.3c-8.4,0-14.9-1.1-19.5-3.4c-6.3-3.1-9.4-8.4-9.4-16V13h5.4v30.9c0,10,7.8,15,23.5,15
			c15.7,0,23.5-4.9,23.5-14.7V13h5.4v31.1C337.3,51.6,334.1,57,327.8,60.1z"/>
		<path d="M391.9,60.8c-5,1.7-10.9,2.6-17.7,2.6c-7.8,0-14.3-0.9-19.3-2.7c-7.6-2.7-11.5-7.5-11.5-14.1v-2.3h5.4v2
			c0,8.4,8.5,12.6,25.6,12.6c5.4,0,10-0.5,13.9-1.6c5.6-1.6,8.4-4.1,8.4-7.6c0-2.4-1-4.1-2.9-5.4c-1.5-0.9-4-1.7-7.5-2.4
			c-1.9-0.4-6.6-1.2-14.1-2.4c-8.5-1.3-14.3-2.5-17.2-3.6c-6.2-2.3-9.3-5.7-9.3-10.4c0-8.7,8.9-13,26.8-13
			c18.6,0,28.1,5.6,28.3,16.8h-5.4c-0.4-5.4-3.1-8.9-8-10.6c-3.4-1.1-8.4-1.7-15-1.7c-14.2,0-21.4,2.8-21.4,8.5
			c0,2.7,1.8,4.8,5.5,6.2c2.7,1,7.3,2,13.8,2.8c12,1.6,20.1,3.2,24.1,5c5.1,2.2,7.7,5.6,7.7,10.4C402,54.9,398.7,58.5,391.9,60.8z"
			/>
	</g>
</g>
</svg>
